<?xml version="1.0" encoding="iso-8859-1"?>
<!-- Uploaded to: SVG Repo, www.svgrepo.com, Generator: SVG Repo Mixer Tools -->
<svg height="800px" width="800px" version="1.1" id="Layer_1" xmlns="http://www.w3.org/2000/svg" xmlns:xlink="http://www.w3.org/1999/xlink" 
	 viewBox="0 0 512 512" xml:space="preserve">
<g>
	<g>
		<path style="fill:#D1D4D1;" d="M211.862,441.6L211.862,441.6c-9.754,0-17.655-7.901-17.655-17.655V361.71h35.31v62.234
			C229.517,433.699,221.617,441.6,211.862,441.6"/>
		<path style="fill:#D1D4D1;" d="M105.931,423.503V361.71h-35.31v61.793c0,9.754,7.901,17.655,17.655,17.655l0,0
			C98.03,441.159,105.931,433.258,105.931,423.503"/>
	</g>
	<path style="fill:#C03A2B;" d="M282.456,211.641h-52.913c-4.891,0-8.854,3.964-8.854,8.854v17.602c0,4.89,3.964,8.854,8.854,8.854
		h52.913c4.89,0,8.854-3.964,8.854-8.854v-17.602C291.31,215.605,287.347,211.641,282.456,211.641"/>
	<path style="fill:#802F34;" d="M229.517,246.952v52.966c0,9.754,7.901,17.655,17.655,17.655h17.655
		c9.754,0,17.655-7.901,17.655-17.655v-52.966H229.517z"/>
	<path style="fill:#C03A2B;" d="M61.767,211.641H8.854c-4.89,0-8.854,3.964-8.854,8.854v17.602c0,4.89,3.964,8.854,8.854,8.854
		h52.913c4.89,0,8.854-3.964,8.854-8.854v-17.602C70.621,215.605,66.657,211.641,61.767,211.641"/>
	<path style="fill:#802F34;" d="M8.828,246.952v52.966c0,9.754,7.901,17.655,17.655,17.655h17.655
		c9.754,0,17.655-7.901,17.655-17.655v-52.966H8.828z"/>
	<path style="fill:#E64C3C;" d="M59.908,211.641h1.863c4.89,0,8.854,3.964,8.854,8.854v17.602c0,4.89-3.964,8.854-8.854,8.854h0.026
		v44.138h7.247h160.477v-44.138h0.026c-4.89,0-8.854-3.964-8.854-8.854v-17.602c0-4.89,3.964-8.854,8.854-8.854h8.801l-6.241-99.858
		C230.651,88.523,211.362,70.4,188.049,70.4h-76.553c-23.066,0-42.249,17.761-44.006,40.766
		C64.983,143.793,61.629,187.904,59.908,211.641"/>
	<path style="fill:#C03A2B;" d="M198.543,149.853c-4.626,0-8.51-3.602-8.801-8.271l-0.918-14.716
		c-0.433-6.912-6.197-12.323-13.118-12.323h-52.03c-6.833,0-12.588,5.314-13.109,12.103l-1.148,15.042
		c-0.371,4.855-4.582,8.483-9.463,8.13c-4.864-0.371-8.51-4.608-8.139-9.472l1.148-15.051c1.218-15.925,14.707-28.407,30.711-28.407
		h52.03c16.216,0,29.722,12.685,30.738,28.875l0.918,14.716c0.3,4.864-3.399,9.057-8.263,9.357
		C198.914,149.853,198.728,149.853,198.543,149.853"/>
	<path style="fill:#E64C3C;" d="M280.597,211.641h1.863c4.89,0,8.854,3.964,8.854,8.854v17.602c0,4.89-3.964,8.854-8.854,8.854
		h0.026v44.138h7.247H450.21v-44.138h0.026c-4.89,0-8.854-3.964-8.854-8.854v-17.602c0-4.89,3.964-8.854,8.854-8.854h8.801
		l-6.241-99.858C451.34,88.523,432.052,70.4,408.738,70.4h-76.553c-23.066,0-42.249,17.761-44.006,40.766
		C285.673,143.793,282.319,187.904,280.597,211.641"/>
	<path style="fill:#C03A2B;" d="M419.233,149.853c-4.626,0-8.51-3.602-8.801-8.271l-0.918-14.716
		c-0.433-6.912-6.197-12.323-13.118-12.323h-52.03c-6.833,0-12.588,5.314-13.109,12.103l-1.148,15.042
		c-0.371,4.855-4.59,8.483-9.463,8.13c-4.864-0.371-8.51-4.608-8.139-9.472l1.148-15.051c1.218-15.925,14.707-28.407,30.711-28.407
		h52.03c16.216,0,29.722,12.685,30.738,28.875l0.918,14.716c0.3,4.864-3.399,9.057-8.263,9.357
		C419.603,149.853,419.418,149.853,419.233,149.853"/>
	<path style="fill:#A32D24;" d="M247.172,317.572c-9.754,0-17.655-7.901-17.655-17.655v-8.828H69.041h-7.247v8.828
		c0,9.754-7.901,17.655-17.655,17.655v17.655c0,14.627,11.855,26.483,26.483,26.483H256v-44.138H247.172z"/>
	<g>
		<path style="fill:#D1D4D1;" d="M300.138,441.6L300.138,441.6c9.754,0,17.655-7.901,17.655-17.655V361.71h-35.31v62.234
			C282.483,433.699,290.383,441.6,300.138,441.6"/>
		<path style="fill:#D1D4D1;" d="M406.069,423.503V361.71h35.31v61.793c0,9.754-7.901,17.655-17.655,17.655l0,0
			C413.97,441.159,406.069,433.258,406.069,423.503"/>
	</g>
	<path style="fill:#C03A2B;" d="M450.233,211.641h52.913c4.89,0,8.854,3.964,8.854,8.854v17.602c0,4.89-3.964,8.854-8.854,8.854
		h-52.913c-4.89,0-8.854-3.964-8.854-8.854v-17.602C441.379,215.605,445.343,211.641,450.233,211.641"/>
	<path style="fill:#802F34;" d="M503.172,246.952v52.966c0,9.754-7.901,17.655-17.655,17.655h-17.655
		c-9.754,0-17.655-7.901-17.655-17.655v-52.966H503.172z"/>
	<path style="fill:#C03A2B;" d="M264.828,317.572c9.754,0,17.655-7.901,17.655-17.655v-8.828h160.477h7.247v8.828
		c0,9.754,7.901,17.655,17.655,17.655v17.655c0,14.627-11.855,26.483-26.483,26.483H256v-44.138H264.828z"/>
</g>
</svg>